<?xml version="1.0" encoding="utf-8"?>
<!-- Generator: Adobe Illustrator 21.1.0, SVG Export Plug-In . SVG Version: 6.00 Build 0)  -->
<svg version="1.1" id="Layer_1" xmlns="http://www.w3.org/2000/svg" xmlns:xlink="http://www.w3.org/1999/xlink" x="0px" y="0px"
	 viewBox="0 0 120 120" style="enable-background:new 0 0 120 120;" xml:space="preserve">
<style type="text/css">
	.st0{fill:none;}
	.st1{fill:#FFFFFF;}
	.st2{fill:#2B6FFF;}
	.st3{fill:#D5EFFF;}
	.st4{fill:#D6F0FF;}
	.st5{fill:#FF8555;}
</style>
<g>
	<path class="st0" d="M24.6299,24.6447c-19.4941,19.4951-19.4941,51.2158,0,70.7109c19.4961,19.4941,51.2158,19.4941,70.7119,0
		c9.4434-9.4443,14.6445-22,14.6445-35.3555s-5.2012-25.9111-14.6445-35.3555C75.8477,5.1505,44.126,5.1495,24.6299,24.6447z"/>
	<path class="st4" d="M17.5596,95.3556c1.9512-1.9531,5.1191-1.9531,7.0703,0c-19.4941-19.4951-19.4941-51.2158,0-70.7109
		c1.9531-1.9531,1.9531-5.1187,0-7.0713c-1.9512-1.9521-5.1191-1.9521-7.0703,0c-23.3945,23.3945-23.3945,61.459,0,84.8525
		C15.6064,100.4738,15.6064,97.3077,17.5596,95.3556z"/>
	<path class="st2" d="M95.3418,102.4259c-1.9531-1.9521-1.9531-5.1182,0-7.0703c-19.4961,19.4941-51.2158,19.4941-70.7119,0
		c-1.9512-1.9531-5.1191-1.9531-7.0703,0c-1.9531,1.9521-1.9531,5.1182,0,7.0703c11.6973,11.6973,27.0615,17.5459,42.4268,17.5459
		c15.3643,0,30.7295-5.8486,42.4258-17.5459c-0.9756,0.9766-2.2559,1.4648-3.5352,1.4648S96.3174,103.4025,95.3418,102.4259z"/>
	<path class="st1" d="M102.4121,17.5734c-23.3945-23.394-61.46-23.3931-84.8525,0c1.9512-1.9521,5.1191-1.9521,7.0703,0
		c1.9531,1.9526,1.9531,5.1182,0,7.0713c19.4961-19.4951,51.2178-19.4941,70.7119,0c9.4434,9.4443,14.6445,22,14.6445,35.3555
		s-5.2012,25.9111-14.6445,35.3555c-1.9531,1.9521-1.9531,5.1182,0,7.0703c0.9756,0.9766,2.2559,1.4648,3.5352,1.4648
		s2.5596-0.4883,3.5352-1.4648c11.333-11.332,17.5742-26.3994,17.5742-42.4258S113.7451,28.9064,102.4121,17.5734z"/>
</g>
</svg>
