<?xml version="1.0" encoding="utf-8"?>
<!-- Generator: Adobe Illustrator 21.1.0, SVG Export Plug-In . SVG Version: 6.00 Build 0)  -->
<svg version="1.1" id="Layer_1" xmlns="http://www.w3.org/2000/svg" xmlns:xlink="http://www.w3.org/1999/xlink" x="0px" y="0px"
	 viewBox="0 0 120 120" style="enable-background:new 0 0 120 120;" xml:space="preserve">
<style type="text/css">
	.st0{fill:none;}
	.st1{fill:#FFFFFF;}
	.st2{fill:#2B6FFF;}
	.st3{fill:#D5EFFF;}
	.st4{fill:#D6F0FF;}
	.st5{fill:#FF8555;}
</style>
<g>
	<g>
		<path class="st3" d="M104.9998,15h-60c-2.7617,0-5-2.2388-5-5s2.2383-5,5-5h60c2.7617,0,5,2.2388,5,5S107.7615,15,104.9998,15z"/>
	</g>
	<g>
		<path class="st3" d="M104.9998,45h-60c-2.7617,0-5-2.2383-5-5s2.2383-5,5-5h60c2.7617,0,5,2.2383,5,5S107.7615,45,104.9998,45z"/>
	</g>
	<g>
		<path class="st3" d="M104.9998,75h-60c-2.7617,0-5-2.2383-5-5s2.2383-5,5-5h60c2.7617,0,5,2.2383,5,5S107.7615,75,104.9998,75z"/>
	</g>
	<g>
		<path class="st2" d="M104.9998,115h-45c-2.7617,0-5-2.2383-5-5s2.2383-5,5-5h45c2.7617,0,5,2.2383,5,5S107.7615,115,104.9998,115z
			"/>
	</g>
	<g>
		<circle class="st1" cx="15.0002" cy="10.0002" r="5"/>
	</g>
	<g>
		<circle class="st1" cx="15.0002" cy="40.0002" r="5"/>
	</g>
	<g>
		<circle class="st1" cx="15.0002" cy="70.0002" r="5"/>
	</g>
</g>
</svg>
